<?xml version="1.0" encoding="UTF-8"?>
<!DOCTYPE svg PUBLIC "-//W3C//DTD SVG 1.1//EN" "http://www.w3.org/Graphics/SVG/1.1/DTD/svg11.dtd">
<svg xmlns="http://www.w3.org/2000/svg" version="1.1" width="502px" height="115px" style="shape-rendering:geometricPrecision; text-rendering:geometricPrecision; image-rendering:optimizeQuality; fill-rule:evenodd; clip-rule:evenodd" xmlns:xlink="http://www.w3.org/1999/xlink">
<g><path style="opacity:0.239" fill="#202025" d="M 22.5,25.5 C 20.5,25.5 18.5,25.5 16.5,25.5C 17.6412,24.661 18.9745,23.9943 20.5,23.5C 21.5223,23.8555 22.189,24.5222 22.5,25.5 Z"/></g>
<g><path style="opacity:0.996" fill="#9d9e9e" d="M 164.5,25.5 C 174.833,25.5 185.167,25.5 195.5,25.5C 196.149,47.8088 196.149,70.1421 195.5,92.5C 185.167,92.5 174.833,92.5 164.5,92.5C 164.5,70.1667 164.5,47.8333 164.5,25.5 Z M 169.5,29.5 C 176.5,29.5 183.5,29.5 190.5,29.5C 190.5,49.1667 190.5,68.8333 190.5,88.5C 183.5,88.5 176.5,88.5 169.5,88.5C 169.5,68.8333 169.5,49.1667 169.5,29.5 Z"/></g>
<g><path style="opacity:0.999" fill="#a6a6a6" d="M 224.5,26.5 C 249.167,26.5 273.833,26.5 298.5,26.5C 298.5,31.8333 298.5,37.1667 298.5,42.5C 283.167,42.5 267.833,42.5 252.5,42.5C 252.5,45.8333 252.5,49.1667 252.5,52.5C 265.5,52.5 278.5,52.5 291.5,52.5C 291.5,56.5 291.5,60.5 291.5,64.5C 278.5,64.5 265.5,64.5 252.5,64.5C 252.5,72.8333 252.5,81.1667 252.5,89.5C 243.167,89.5 233.833,89.5 224.5,89.5C 224.5,68.5 224.5,47.5 224.5,26.5 Z"/></g>
<g><path style="opacity:0.993" fill="#a6a6a6" d="M 348.5,26.5 C 357.833,26.5 367.167,26.5 376.5,26.5C 376.168,35.5246 376.502,44.5246 377.5,53.5C 390.5,44.6667 403.5,35.8333 416.5,27C 428.5,26.3333 440.5,26.3333 452.5,27C 437.778,36.6876 423.444,46.8543 409.5,57.5C 423.669,68.1614 438.003,78.6614 452.5,89C 440.5,89.6667 428.5,89.6667 416.5,89C 407.975,82.3076 399.308,75.8076 390.5,69.5C 385.914,72.376 381.414,75.376 377,78.5C 376.501,82.1516 376.335,85.8183 376.5,89.5C 367.167,89.5 357.833,89.5 348.5,89.5C 348.5,68.5 348.5,47.5 348.5,26.5 Z"/></g>
<g><path style="opacity:0.997" fill="#a5a5a5" d="M 307.5,26.5 C 316.833,26.5 326.167,26.5 335.5,26.5C 335.5,47.5 335.5,68.5 335.5,89.5C 326.167,89.5 316.833,89.5 307.5,89.5C 307.5,68.5 307.5,47.5 307.5,26.5 Z"/></g>
<g><path style="opacity:0.996" fill="#a5a5a5" d="M 459.5,26.5 C 468.833,26.5 478.167,26.5 487.5,26.5C 487.5,47.5 487.5,68.5 487.5,89.5C 478.167,89.5 468.833,89.5 459.5,89.5C 459.5,68.5 459.5,47.5 459.5,26.5 Z"/></g>
<g><path style="opacity:0.18" fill="#131813" d="M 12.5,30.5 C 12.5,32.1667 12.5,33.8333 12.5,35.5C 11.3509,35.2089 10.6842,34.3756 10.5,33C 10.6842,31.6244 11.3509,30.7911 12.5,30.5 Z"/></g>
<g><path style="opacity:0.975" fill="#a1a1a1" d="M 12.5,35.5 C 12.5,33.8333 12.5,32.1667 12.5,30.5C 13.0798,28.2512 14.4131,26.5846 16.5,25.5C 18.5,25.5 20.5,25.5 22.5,25.5C 29.6659,25.3332 36.9992,25.3332 44.5,25.5C 44.3336,34.1731 44.5002,42.8397 45,51.5C 57.0793,42.8768 69.2459,34.3768 81.5,26C 106.164,25.5 130.831,25.3334 155.5,25.5C 155.5,47.8333 155.5,70.1667 155.5,92.5C 131.164,92.6666 106.831,92.5 82.5,92C 73.9748,85.3076 65.3081,78.8076 56.5,72.5C 52.8046,75.3615 48.9713,78.0282 45,80.5C 44.5012,84.4862 44.3345,88.4862 44.5,92.5C 33.8333,92.5 23.1667,92.5 12.5,92.5C 12.5,73.5 12.5,54.5 12.5,35.5 Z M 129.5,29.5 C 136.422,29.1878 143.256,29.5212 150,30.5C 150.826,49.74 150.659,68.9067 149.5,88C 142.586,88.8112 135.752,88.6445 129,87.5C 128.18,68.0934 128.347,48.7601 129.5,29.5 Z M 19.5,29.5 C 25.8333,29.5 32.1667,29.5 38.5,29.5C 38.5,39.5 38.5,49.5 38.5,59.5C 39.8734,59.6567 41.2068,59.49 42.5,59C 56.2247,48.9432 70.2247,39.2765 84.5,30C 93.0491,29.4437 101.382,29.4437 109.5,30C 96.1667,39.3333 82.8333,48.6667 69.5,58C 83.3441,67.7556 97.0108,77.7556 110.5,88C 101.833,88.6667 93.1667,88.6667 84.5,88C 75.424,80.7126 66.2573,73.546 57,66.5C 50.8233,70.5884 44.8233,74.9217 39,79.5C 38.502,82.4816 38.3354,85.4816 38.5,88.5C 31.5,88.5 24.5,88.5 17.5,88.5C 17.3334,69.4971 17.5001,50.4971 18,31.5C 18.7172,30.9558 19.2172,30.2891 19.5,29.5 Z M 122.5,27.5 C 123.828,48.3372 123.828,69.3372 122.5,90.5C 107.53,80.1883 92.8631,69.5216 78.5,58.5C 93.1847,48.1415 107.851,37.8082 122.5,27.5 Z"/></g>
<g><path style="opacity:1" fill="#0b4ba7" d="M 201.5,55.5 C 206.511,55.3341 211.511,55.5007 216.5,56C 217.629,60.0785 217.796,64.2452 217,68.5C 212.252,69.6349 207.419,69.8015 202.5,69C 201.533,64.5986 201.2,60.0986 201.5,55.5 Z"/></g>
</svg>
